<svg width="20" height="16" viewBox="0 0 20 16" fill="none" xmlns="http://www.w3.org/2000/svg">
<path d="M2.66671 15.4436C2.16254 15.4436 1.7311 15.265 1.37237 14.9076C1.01304 14.5497 0.833374 14.1196 0.833374 13.6173V2.65966C0.833374 2.15743 1.01304 1.72764 1.37237 1.3703C1.7311 1.01235 2.16254 0.833374 2.66671 0.833374H17.3334C17.8375 0.833374 18.2693 1.01235 18.6286 1.3703C18.9873 1.72764 19.1667 2.15743 19.1667 2.65966V13.6173C19.1667 14.1196 18.9873 14.5497 18.6286 14.9076C18.2693 15.265 17.8375 15.4436 17.3334 15.4436H2.66671ZM10 9.05164L2.66671 4.48594V13.6173H17.3334V4.48594L10 9.05164ZM10 7.22536L17.3334 2.65966H2.66671L10 7.22536ZM2.66671 4.48594V2.65966V13.6173V4.48594Z" fill="white"/>
</svg>
