<svg width="17" height="17" viewBox="0 0 17 17" fill="none" xmlns="http://www.w3.org/2000/svg">
<path d="M1.54375 16.375C1.28125 16.375 1.0625 16.2875 0.8875 16.1125C0.7125 15.9375 0.625 15.7188 0.625 15.4563V11.9125C0.625 11.7083 0.690625 11.5295 0.821875 11.3761C0.953125 11.2233 1.12083 11.125 1.325 11.0813L4.34375 10.4688C4.54792 10.4396 4.75587 10.4577 4.96762 10.523C5.17879 10.5889 5.35 10.6875 5.48125 10.8187L7.5375 12.875C8.64583 12.2042 9.66317 11.4094 10.5895 10.4906C11.5152 9.57187 12.2844 8.5875 12.8969 7.5375L10.775 5.39375C10.6438 5.2625 10.5598 5.11287 10.523 4.94487C10.4868 4.77746 10.4833 4.59167 10.5125 4.3875L11.0813 1.325C11.1104 1.12083 11.2052 0.953125 11.3656 0.821875C11.526 0.690625 11.7083 0.625 11.9125 0.625H15.4563C15.7188 0.625 15.9375 0.7125 16.1125 0.8875C16.2875 1.0625 16.375 1.28125 16.375 1.54375C16.375 3.425 15.9556 5.25871 15.1168 7.04488C14.2785 8.83162 13.1702 10.4139 11.7917 11.7917C10.4139 13.1702 8.83192 14.2785 7.04575 15.1168C5.259 15.9556 3.425 16.375 1.54375 16.375ZM13.7281 5.875C13.976 5.30625 14.1656 4.73021 14.2969 4.14688C14.4281 3.56354 14.5302 2.97292 14.6031 2.375H12.6562L12.2844 4.43125L13.7281 5.875ZM5.89687 13.7063L4.43125 12.2406L2.375 12.6562V14.5813C2.97292 14.5375 3.56733 14.4427 4.15825 14.2969C4.74858 14.151 5.32812 13.9542 5.89687 13.7063Z" fill="white"/>
</svg>
