<svg width="263" height="4" viewBox="0 0 263 4" fill="none" xmlns="http://www.w3.org/2000/svg">
<path d="M260.855 4C259.77 4 258.882 3.1 258.882 2C258.882 0.9 259.77 0 260.855 0C261.94 0 262.828 0.9 262.828 2C262.828 3.1 261.94 4 260.855 4ZM244.684 4C243.599 4 242.711 3.1 242.711 2C242.711 0.9 243.599 0 244.684 0C245.77 0 246.658 0.9 246.658 2C246.658 3.1 245.77 4 244.684 4ZM228.524 4C227.428 4 226.54 3.1 226.54 2C226.54 0.9 227.428 0 228.524 0C229.619 0 230.497 0.9 230.497 2C230.497 3.1 229.609 4 228.524 4ZM212.343 4C211.258 4 210.37 3.1 210.37 2C210.37 0.9 211.258 0 212.343 0C213.428 0 214.326 0.9 214.326 2C214.326 3.1 213.438 4 212.343 4ZM196.172 4C195.087 4 194.209 3.1 194.209 2C194.209 0.9 195.087 0 196.172 0C197.258 0 198.155 0.9 198.155 2C198.155 3.1 197.267 4 196.172 4ZM180.011 4C178.926 4 178.038 3.1 178.038 2C178.038 0.9 178.926 0 180.011 0C181.097 0 181.985 0.9 181.985 2C181.985 3.1 181.097 4 180.011 4ZM163.841 4C162.755 4 161.867 3.1 161.867 2C161.867 0.9 162.755 0 163.841 0C164.926 0 165.814 0.9 165.814 2C165.814 3.1 164.926 4 163.841 4ZM147.67 4C146.585 4 145.697 3.1 145.697 2C145.697 0.9 146.585 0 147.67 0C148.755 0 149.643 0.9 149.643 2C149.643 3.1 148.755 4 147.67 4ZM131.499 4C130.414 4 129.526 3.1 129.526 2C129.526 0.9 130.414 0 131.499 0C132.584 0 133.472 0.9 133.472 2C133.472 3.1 132.584 4 131.499 4ZM115.328 4C114.243 4 113.355 3.1 113.355 2C113.355 0.9 114.243 0 115.328 0C116.414 0 117.302 0.9 117.302 2C117.302 3.1 116.414 4 115.328 4ZM99.1577 4C98.0724 4 97.1845 3.1 97.1845 2C97.1845 0.9 98.0724 0 99.1577 0C100.243 0 101.131 0.9 101.131 2C101.131 3.1 100.243 4 99.1577 4ZM82.9968 4C81.9017 4 81.0137 3.1 81.0137 2C81.0137 0.9 81.9017 0 82.9968 0C84.092 0 84.9701 0.9 84.9701 2C84.9701 3.1 84.0821 4 82.9968 4ZM66.8162 4C65.731 4 64.843 3.1 64.843 2C64.843 0.9 65.731 0 66.8162 0C67.9015 0 68.7895 0.9 68.7895 2C68.7895 3.1 67.9015 4 66.8162 4ZM50.6554 4C49.5701 4 48.6821 3.1 48.6821 2C48.6821 0.9 49.5701 0 50.6554 0C51.7407 0 52.6286 0.9 52.6286 2C52.6286 3.1 51.7407 4 50.6554 4ZM34.4846 4C33.3994 4 32.5114 3.1 32.5114 2C32.5114 0.9 33.3994 0 34.4846 0C35.5699 0 36.4579 0.9 36.4579 2C36.4579 3.1 35.5699 4 34.4846 4ZM18.3139 4C17.2286 4 16.3407 3.1 16.3407 2C16.3407 0.9 17.2286 0 18.3139 0C19.3992 0 20.2871 0.9 20.2871 2C20.2871 3.1 19.3992 4 18.3139 4ZM2.14317 4C1.05788 4 0.169922 3.1 0.169922 2C0.169922 0.9 1.05788 0 2.14317 0C3.22845 0 4.11641 0.9 4.11641 2C4.11641 3.1 3.22845 4 2.14317 4Z" fill="#FF7C61"/>
</svg>
