<svg width="76" height="76" viewBox="0 0 76 76" fill="none" xmlns="http://www.w3.org/2000/svg">
<g clip-path="url(#clip0_451_2538)" filter="url(#filter0_d_451_2538)">
<path d="M38 68C32.0502 68 26.2126 66.4252 21.0425 63.4365L7.79565 68L10.5172 53.9728C6.24826 48.1228 4 41.2442 4 34.0015C4 15.253 19.2524 0 38 0C56.7476 0 72 15.253 72 34.0015C72 52.75 56.7507 68 38 68Z" fill="#32BA46"/>
<path d="M37.9996 56.212C34.1129 56.212 30.2991 55.1834 26.9221 53.2294L18.2689 56.212L20.0469 47.0456C17.2585 43.2255 15.79 38.7288 15.79 33.9985C15.79 21.7493 25.754 11.7849 38.0026 11.7849C50.2512 11.7849 60.2152 21.7493 60.2152 33.9985C60.2152 46.2476 50.2512 56.212 38.0026 56.212H37.9996ZM27.3196 49.5974L27.9901 50.0161C31.006 51.9065 34.4679 52.9078 37.9996 52.9078C48.4277 52.9078 56.908 44.4271 56.908 33.9985C56.908 23.5698 48.4277 15.0922 37.9996 15.0922C27.5714 15.0922 19.0942 23.5729 19.0942 33.9985C19.0942 38.2403 20.4838 42.2607 23.1113 45.6196L23.5755 46.2143L22.6046 51.2207L27.3226 49.5944L27.3196 49.5974Z" fill="white"/>
<path d="M26.7853 25.4661C26.7853 25.4661 28.0899 23.1874 29.1518 23.057C30.2138 22.9265 31.5821 22.9265 31.9493 23.6213C32.3194 24.3162 33.9669 28.3517 33.9669 28.3517C33.9669 28.3517 34.2491 29.0465 33.8152 29.7201C33.3814 30.3937 32.4044 31.3677 32.4044 31.3677C32.4044 31.3677 31.8613 32.0625 32.4044 32.7998C32.9475 33.5372 33.7879 34.8935 35.5295 36.6321C37.268 38.3737 40.6055 39.6117 40.6055 39.6117C40.6055 39.6117 41.0819 39.6754 41.3883 39.372C41.6917 39.0686 43.3423 37.0083 43.3423 37.0083C43.3423 37.0083 43.8702 36.3256 44.7531 36.7261C45.633 37.1267 49.4408 39.0261 49.4408 39.0261C49.4408 39.0261 49.8868 39.1899 49.8868 39.8605C49.8868 40.531 49.6137 42.1786 49.0585 42.7339C48.5033 43.2922 46.874 45.0065 44.4285 45.0065C41.983 45.0065 36.1606 43.0161 33.0597 39.9151C29.9559 36.8111 27.2009 33.6646 26.5516 30.8003C25.8993 27.936 25.9873 26.6404 26.7883 25.4631L26.7853 25.4661Z" fill="white"/>
</g>
<defs>
<filter id="filter0_d_451_2538" x="0" y="0" width="76" height="76" filterUnits="userSpaceOnUse" color-interpolation-filters="sRGB">
<feFlood flood-opacity="0" result="BackgroundImageFix"/>
<feColorMatrix in="SourceAlpha" type="matrix" values="0 0 0 0 0 0 0 0 0 0 0 0 0 0 0 0 0 0 127 0" result="hardAlpha"/>
<feOffset dy="4"/>
<feGaussianBlur stdDeviation="2"/>
<feComposite in2="hardAlpha" operator="out"/>
<feColorMatrix type="matrix" values="0 0 0 0 0 0 0 0 0 0 0 0 0 0 0 0 0 0 0.25 0"/>
<feBlend mode="normal" in2="BackgroundImageFix" result="effect1_dropShadow_451_2538"/>
<feBlend mode="normal" in="SourceGraphic" in2="effect1_dropShadow_451_2538" result="shape"/>
</filter>
<clipPath id="clip0_451_2538">
<rect width="68" height="68" fill="white" transform="translate(4)"/>
</clipPath>
</defs>
</svg>
